REM DIRINDEX 1\2,1\3,1\4,1\5,1\6
REM DIRNAME "folder01","folder02","folder03","folder04","folder05","folder06"
TITLE ""
FILE "Disc3Track65.mp3" MP3
  TRACK 01 AUDIO
    TITLE "3:cjc161_06094"
    INDEX 01 00:00:00
  TRACK 02 AUDIO
    TITLE "4:cjc161_06095"
    INDEX 01 00:01:04
  TRACK 03 AUDIO
    TITLE "5:cjc161_06096"
    INDEX 01 00:02:58
  TRACK 04 AUDIO
    TITLE "6:cjc161_06097"
    INDEX 01 00:03:71
  TRACK 05 AUDIO
    TITLE "0:"
    INDEX 01 00:08:04
  TRACK 06 AUDIO
    TITLE "3:cjc161_06098"
    INDEX 01 00:08:35
  TRACK 07 AUDIO
    TITLE "4:cjc161_06099"
    INDEX 01 00:09:66
  TRACK 08 AUDIO
    TITLE "5:cjc161_06100"
    INDEX 01 00:12:51
  TRACK 09 AUDIO
    TITLE "6:cjc161_06101"
    INDEX 01 00:14:07
  TRACK 10 AUDIO
    TITLE "0:"
    INDEX 01 00:18:24
  TRACK 11 AUDIO
    TITLE "3:cjc161_06102"
    INDEX 01 00:18:57
  TRACK 12 AUDIO
    TITLE "4:cjc161_06103"
    INDEX 01 00:20:09
  TRACK 13 AUDIO
    TITLE "5:cjc161_06104"
    INDEX 01 00:21:46
  TRACK 14 AUDIO
    TITLE "6:cjc161_06105"
    INDEX 01 00:22:73
  TRACK 15 AUDIO
    TITLE "0:"
    INDEX 01 00:29:02
  TRACK 16 AUDIO
    TITLE "3:cjc161_06106"
    INDEX 01 00:29:34
  TRACK 17 AUDIO
    TITLE "4:cjc161_06107"
    INDEX 01 00:30:60
  TRACK 18 AUDIO
    TITLE "5:cjc161_06108"
    INDEX 01 00:34:11
  TRACK 19 AUDIO
    TITLE "6:cjc161_06109"
    INDEX 01 00:35:34
  TRACK 20 AUDIO
    TITLE "0:"
    INDEX 01 00:40:24
  TRACK 21 AUDIO
    TITLE "3:cjc161_06110"
    INDEX 01 00:40:57
  TRACK 22 AUDIO
    TITLE "4:cjc161_06111"
    INDEX 01 00:42:19
  TRACK 23 AUDIO
    TITLE "5:cjc161_06112"
    INDEX 01 00:44:06
  TRACK 24 AUDIO
    TITLE "0:"
    INDEX 01 00:45:42
  TRACK 25 AUDIO
    TITLE "3:cjc161_06113"
    INDEX 01 00:45:74
  TRACK 26 AUDIO
    TITLE "4:cjc161_06114"
    INDEX 01 00:47:14
  TRACK 27 AUDIO
    TITLE "5:cjc161_06115"
    INDEX 01 00:49:32
  TRACK 28 AUDIO
    TITLE "6:cjc161_06116"
    INDEX 01 00:50:47
  TRACK 29 AUDIO
    TITLE "0:"
    INDEX 01 00:55:21
  TRACK 30 AUDIO
    TITLE "3:cjc161_06117"
    INDEX 01 00:55:52
  TRACK 31 AUDIO
    TITLE "4:cjc161_06118"
    INDEX 01 00:56:75
  TRACK 32 AUDIO
    TITLE "5:cjc161_06119"
    INDEX 01 00:59:56
  TRACK 33 AUDIO
    TITLE "0:"
    INDEX 01 01:01:04
  TRACK 34 AUDIO
    TITLE "3:cjc161_06120"
    INDEX 01 01:01:43
  TRACK 35 AUDIO
    TITLE "4:cjc161_06121"
    INDEX 01 01:02:49
  TRACK 36 AUDIO
    TITLE "5:cjc161_06122"
    INDEX 01 01:04:55
  TRACK 37 AUDIO
    TITLE "6:cjc161_06123"
    INDEX 01 01:05:55
  TRACK 38 AUDIO
    TITLE "0:"
    INDEX 01 01:07:44
  TRACK 39 AUDIO
    TITLE "3:cjc161_06124"
    INDEX 01 01:08:02
  TRACK 40 AUDIO
    TITLE "4:cjc161_06125"
    INDEX 01 01:09:17
  TRACK 41 AUDIO
    TITLE "5:cjc161_06126"
    INDEX 01 01:10:15
  TRACK 42 AUDIO
    TITLE "6:cjc161_06127"
    INDEX 01 01:11:30
  TRACK 43 AUDIO
    TITLE "0:"
    INDEX 01 01:13:27
  TRACK 44 AUDIO
    TITLE "3:cjc161_06128"
    INDEX 01 01:13:58
  TRACK 45 AUDIO
    TITLE "4:cjc161_06129"
    INDEX 01 01:14:66
  TRACK 46 AUDIO
    TITLE "5:cjc161_06130"
    INDEX 01 01:15:75
  TRACK 47 AUDIO
    TITLE "6:cjc161_06131"
    INDEX 01 01:17:05
  TRACK 48 AUDIO
    TITLE "0:"
    INDEX 01 01:19:02
  TRACK 49 AUDIO
    TITLE "3:cjc161_06132"
    INDEX 01 01:19:31
  TRACK 50 AUDIO
    TITLE "4:cjc161_06133"
    INDEX 01 01:20:45
  TRACK 51 AUDIO
    TITLE "5:cjc161_06134"
    INDEX 01 01:21:54
  TRACK 52 AUDIO
    TITLE "0:"
    INDEX 01 01:22:65
  TRACK 53 AUDIO
    TITLE "3:cjc161_06135"
    INDEX 01 01:23:31
  TRACK 54 AUDIO
    TITLE "4:cjc161_06136"
    INDEX 01 01:24:40
  TRACK 55 AUDIO
    TITLE "5:cjc161_06137"
    INDEX 01 01:26:14
  TRACK 56 AUDIO
    TITLE "0:"
    INDEX 01 01:27:21
  TRACK 57 AUDIO
    TITLE "3:cjc161_06138"
    INDEX 01 01:27:64
  TRACK 58 AUDIO
    TITLE "4:cjc161_06139"
    INDEX 01 01:28:70
  TRACK 59 AUDIO
    TITLE "5:cjc161_06140"
    INDEX 01 01:31:07
  TRACK 60 AUDIO
    TITLE "6:cjc161_06141"
    INDEX 01 01:32:12
  TRACK 61 AUDIO
    TITLE "0:"
    INDEX 01 01:37:16
  TRACK 62 AUDIO
    TITLE "3:cjc161_06142"
    INDEX 01 01:37:47
  TRACK 63 AUDIO
    TITLE "4:cjc161_06143"
    INDEX 01 01:38:62
  TRACK 64 AUDIO
    TITLE "5:cjc161_06144"
    INDEX 01 01:39:64
  TRACK 65 AUDIO
    TITLE "6:cjc161_06145"
    INDEX 01 01:41:02
  TRACK 66 AUDIO
    TITLE "0:"
    INDEX 01 01:43:52
  TRACK 67 AUDIO
    TITLE "3:cjc161_06146"
    INDEX 01 01:44:04
  TRACK 68 AUDIO
    TITLE "4:cjc161_06147"
    INDEX 01 01:45:23
  TRACK 69 AUDIO
    TITLE "5:cjc161_06148"
    INDEX 01 01:46:18
  TRACK 70 AUDIO
    TITLE "6:cjc161_06149"
    INDEX 01 01:47:34
  TRACK 71 AUDIO
    TITLE "0:"
    INDEX 01 01:50:63
  TRACK 72 AUDIO
    TITLE "3:cjc161_06150"
    INDEX 01 01:51:16
  TRACK 73 AUDIO
    TITLE "4:cjc161_06151"
    INDEX 01 01:52:21
  TRACK 74 AUDIO
    TITLE "5:cjc161_06152"
    INDEX 01 01:53:64
  TRACK 75 AUDIO
    TITLE "6:cjc161_06153"
    INDEX 01 01:54:67
  TRACK 76 AUDIO
    TITLE "0:"
    INDEX 01 01:59:09
  TRACK 77 AUDIO
    TITLE "3:cjc161_06154"
    INDEX 01 01:59:41
  TRACK 78 AUDIO
    TITLE "4:cjc161_06155"
    INDEX 01 02:00:68
  TRACK 79 AUDIO
    TITLE "5:cjc161_06156"
    INDEX 01 02:03:33
  TRACK 80 AUDIO
    TITLE "0:"
    INDEX 01 02:04:61
  TRACK 81 AUDIO
    TITLE "3:cjc161_06157"
    INDEX 01 02:05:26
  TRACK 82 AUDIO
    TITLE "4:cjc161_06158"
    INDEX 01 02:06:37
  TRACK 83 AUDIO
    TITLE "5:cjc161_06159"
    INDEX 01 02:08:22
  TRACK 84 AUDIO
    TITLE "0:"
    INDEX 01 02:09:33
